<?xml version="1.0" encoding="UTF-8" standalone="no"?>
<!DOCTYPE svg PUBLIC "-//W3C//DTD SVG 1.1//EN"
 "http://www.w3.org/Graphics/SVG/1.1/DTD/svg11.dtd">
<!-- Generated by graphviz version 2.43.0 (0)
 -->
<!-- Title: %3 Pages: 1 -->
<svg width="808pt" height="332pt"
 viewBox="0.00 0.00 808.02 332.00" xmlns="http://www.w3.org/2000/svg" xmlns:xlink="http://www.w3.org/1999/xlink">
<g id="graph0" class="graph" transform="scale(1 1) rotate(0) translate(4 328)">
<title>%3</title>
<polygon fill="white" stroke="transparent" points="-4,4 -4,-328 804.02,-328 804.02,4 -4,4"/>
<!-- 140368327076496 -->
<g id="node1" class="node">
<title>140368327076496</title>
<ellipse fill="none" stroke="black" cx="480.69" cy="-306" rx="153.27" ry="18"/>
<text text-anchor="start" x="370.69" y="-302.3" font-family="Times,serif" font-size="14.00">bound method Node.value of A</text>
</g>
<!-- 140368327076832 -->
<g id="node2" class="node">
<title>140368327076832</title>
<ellipse fill="none" stroke="black" cx="317.69" cy="-234" rx="154.07" ry="18"/>
<text text-anchor="start" x="207.19" y="-230.3" font-family="Times,serif" font-size="14.00">bound method Node.value of B</text>
</g>
<!-- 140368327076496&#45;&gt;140368327076832 -->
<g id="edge6" class="edge">
<title>140368327076496&#45;&gt;140368327076832</title>
<path fill="none" stroke="black" d="M442.06,-288.41C419.12,-278.56 389.85,-265.99 365.46,-255.52"/>
<polygon fill="black" stroke="black" points="366.61,-252.2 356.04,-251.47 363.85,-258.63 366.61,-252.2"/>
</g>
<!-- 140368328268336 -->
<g id="node8" class="node">
<title>140368328268336</title>
<ellipse fill="none" stroke="black" cx="644.69" cy="-234" rx="155.17" ry="18"/>
<text text-anchor="start" x="533.19" y="-230.3" font-family="Times,serif" font-size="14.00">bound method Node.value of H</text>
</g>
<!-- 140368327076496&#45;&gt;140368328268336 -->
<g id="edge7" class="edge">
<title>140368327076496&#45;&gt;140368328268336</title>
<path fill="none" stroke="black" d="M519.55,-288.41C542.63,-278.56 572.08,-265.99 596.62,-255.52"/>
<polygon fill="black" stroke="black" points="598.28,-258.61 606.1,-251.47 595.53,-252.18 598.28,-258.61"/>
</g>
<!-- 140368327076736 -->
<g id="node3" class="node">
<title>140368327076736</title>
<ellipse fill="none" stroke="black" cx="154.69" cy="-162" rx="154.07" ry="18"/>
<text text-anchor="start" x="44.19" y="-158.3" font-family="Times,serif" font-size="14.00">bound method Node.value of C</text>
</g>
<!-- 140368327076832&#45;&gt;140368327076736 -->
<g id="edge2" class="edge">
<title>140368327076832&#45;&gt;140368327076736</title>
<path fill="none" stroke="black" d="M279.06,-216.41C256.12,-206.56 226.85,-193.99 202.46,-183.52"/>
<polygon fill="black" stroke="black" points="203.61,-180.2 193.04,-179.47 200.85,-186.63 203.61,-180.2"/>
</g>
<!-- 140368327076688 -->
<g id="node5" class="node">
<title>140368327076688</title>
<ellipse fill="none" stroke="black" cx="480.69" cy="-162" rx="154.07" ry="18"/>
<text text-anchor="start" x="370.19" y="-158.3" font-family="Times,serif" font-size="14.00">bound method Node.value of E</text>
</g>
<!-- 140368327076832&#45;&gt;140368327076688 -->
<g id="edge5" class="edge">
<title>140368327076832&#45;&gt;140368327076688</title>
<path fill="none" stroke="black" d="M356.31,-216.41C379.25,-206.56 408.53,-193.99 432.91,-183.52"/>
<polygon fill="black" stroke="black" points="434.53,-186.63 442.33,-179.47 431.77,-180.2 434.53,-186.63"/>
</g>
<!-- 140368327075632 -->
<g id="node4" class="node">
<title>140368327075632</title>
<ellipse fill="none" stroke="black" cx="154.69" cy="-90" rx="154.87" ry="18"/>
<text text-anchor="start" x="43.69" y="-86.3" font-family="Times,serif" font-size="14.00">bound method Node.value of D</text>
</g>
<!-- 140368327076736&#45;&gt;140368327075632 -->
<g id="edge1" class="edge">
<title>140368327076736&#45;&gt;140368327075632</title>
<path fill="none" stroke="black" d="M154.69,-143.7C154.69,-135.98 154.69,-126.71 154.69,-118.11"/>
<polygon fill="black" stroke="black" points="158.19,-118.1 154.69,-108.1 151.19,-118.1 158.19,-118.1"/>
</g>
<!-- 140368325092352 -->
<g id="node6" class="node">
<title>140368325092352</title>
<ellipse fill="none" stroke="black" cx="480.69" cy="-90" rx="153.27" ry="18"/>
<text text-anchor="start" x="370.69" y="-86.3" font-family="Times,serif" font-size="14.00">bound method Node.value of F</text>
</g>
<!-- 140368327076688&#45;&gt;140368325092352 -->
<g id="edge4" class="edge">
<title>140368327076688&#45;&gt;140368325092352</title>
<path fill="none" stroke="black" d="M480.69,-143.7C480.69,-135.98 480.69,-126.71 480.69,-118.11"/>
<polygon fill="black" stroke="black" points="484.19,-118.1 480.69,-108.1 477.19,-118.1 484.19,-118.1"/>
</g>
<!-- 140368327698656 -->
<g id="node7" class="node">
<title>140368327698656</title>
<ellipse fill="none" stroke="black" cx="480.69" cy="-18" rx="154.87" ry="18"/>
<text text-anchor="start" x="369.69" y="-14.3" font-family="Times,serif" font-size="14.00">bound method Node.value of G</text>
</g>
<!-- 140368325092352&#45;&gt;140368327698656 -->
<g id="edge3" class="edge">
<title>140368325092352&#45;&gt;140368327698656</title>
<path fill="none" stroke="black" d="M480.69,-71.7C480.69,-63.98 480.69,-54.71 480.69,-46.11"/>
<polygon fill="black" stroke="black" points="484.19,-46.1 480.69,-36.1 477.19,-46.1 484.19,-46.1"/>
</g>
</g>
</svg>
